<svg width="1024" height="1024" viewBox="0 0 1024 1024" fill="none" xmlns="http://www.w3.org/2000/svg">
<g clip-path="url(#clip0_102_203)">
<path d="M636.816 162.097C634.158 163.744 627.926 174.53 611.885 204.871C591.047 244.395 507.888 409.607 470.09 486.593L435 558.077L484.813 582.594C512.173 596.059 535.07 606.959 535.698 606.621C536.252 606.433 540.051 597.589 543.838 586.892C547.773 576.268 560.89 540.61 573.023 507.514C649.135 300.137 687.66 185.643 684.413 176.102C682.714 171.11 676.328 163.257 671.492 160.323C664.907 156.25 656.898 155.634 647.207 158.437C642.694 159.725 638.072 161.422 636.816 162.097Z" fill="url(#paint0_linear_102_203)"/>
<path d="M412.022 593.131C369.022 638.465 352.794 686.076 360.531 743.728C362.628 758.983 376.106 798.588 384.694 814.728C395.043 833.86 415.169 863.899 419.111 866.024C419.816 866.279 418.601 861.617 416.636 855.477C407.761 829.036 410.225 802.45 423.385 785.468C431.361 775.079 439.774 769.245 458.882 761.009C478.728 752.398 483.343 749.589 493.288 739.891C514.063 719.823 524.878 689.404 524.676 651.346C524.594 644.195 524.512 637.043 524.316 635.376C524.002 632.636 518.387 629.595 473.035 607.275L422.22 582.357L412.022 593.131Z" fill="url(#paint1_linear_102_203)"/>
</g>
<path d="M71.264 519.92V481.52L312.16 368.368V422.64L128.864 503.792V497.648L312.16 576.496V632.048L71.264 519.92ZM950.852 519.92L709.956 632.048V576.496L893.252 497.648V503.792L709.956 422.64V368.368L950.852 481.52V519.92Z" fill="#930ED2" fill-opacity="0.96"/>
<defs>
<linearGradient id="paint0_linear_102_203" x1="630.273" y1="574.435" x2="505.108" y2="206.662" gradientUnits="userSpaceOnUse">
<stop stop-color="#0E22D2" stop-opacity="0.96"/>
<stop offset="0.703125" stop-color="#930ED2" stop-opacity="0.96"/>
</linearGradient>
<linearGradient id="paint1_linear_102_203" x1="492.821" y1="840.971" x2="406.614" y2="587.668" gradientUnits="userSpaceOnUse">
<stop stop-color="#0E22D2" stop-opacity="0.96"/>
<stop offset="0.703125" stop-color="#930ED2" stop-opacity="0.96"/>
</linearGradient>
<clipPath id="clip0_102_203">
<rect width="600" height="600" fill="white" transform="translate(158 324.31) rotate(-18.7951)"/>
</clipPath>
</defs>
</svg>
