<svg width="2787" height="1159" viewBox="0 0 2787 1159" fill="none" xmlns="http://www.w3.org/2000/svg">
<g clip-path="url(#clip0_120_14)">
<path d="M639.816 297.097C637.158 298.744 630.926 309.53 614.885 339.871C594.047 379.395 510.888 544.607 473.09 621.593L438 693.077L487.813 717.594C515.173 731.059 538.07 741.959 538.698 741.621C539.252 741.433 543.051 732.589 546.838 721.892C550.773 711.268 563.89 675.61 576.023 642.514C652.135 435.137 690.66 320.643 687.413 311.102C685.714 306.11 679.328 298.257 674.492 295.323C667.907 291.25 659.898 290.634 650.207 293.437C645.694 294.725 641.072 296.422 639.816 297.097Z" fill="url(#paint0_linear_120_14)"/>
<path d="M415.022 728.131C372.022 773.465 355.794 821.076 363.531 878.728C365.628 893.983 379.106 933.588 387.694 949.728C398.043 968.86 418.169 998.899 422.111 1001.02C422.816 1001.28 421.601 996.617 419.636 990.478C410.761 964.036 413.225 937.45 426.385 920.468C434.361 910.079 442.774 904.245 461.882 896.009C481.728 887.398 486.343 884.589 496.288 874.892C517.063 854.823 527.878 824.404 527.676 786.346C527.594 779.195 527.512 772.043 527.316 770.376C527.002 767.636 521.387 764.595 476.035 742.275L425.22 717.357L415.022 728.131Z" fill="url(#paint1_linear_120_14)"/>
</g>
<path d="M71.264 654.92V616.52L312.16 503.368V557.64L128.864 638.792V632.648L312.16 711.496V767.048L71.264 654.92ZM950.852 654.92L709.956 767.048V711.496L893.252 632.648V638.792L709.956 557.64V503.368L950.852 616.52V654.92Z" fill="#930ED2" fill-opacity="0.96"/>
<path d="M1453.85 431.288C1487.13 431.288 1514.78 443.064 1536.79 466.616C1558.81 489.656 1569.82 521.656 1569.82 562.616V803H1517.59V585.656C1517.59 547.768 1510.42 520.632 1496.09 504.248C1481.75 487.352 1463.06 478.904 1440.02 478.904C1411.86 478.904 1389.85 489.912 1373.98 511.928C1358.62 533.432 1349.66 562.872 1347.1 600.248V803H1294.87V585.656C1294.87 547.768 1287.7 520.632 1273.37 504.248C1259.03 487.352 1240.34 478.904 1217.3 478.904C1186.07 478.904 1162.52 491.96 1146.65 518.072C1131.29 544.184 1123.61 579.256 1123.61 623.288V803H1071.38V443.576H1123.61V499.64C1135.38 477.624 1150.23 460.728 1168.15 448.952C1186.58 437.176 1207.58 431.288 1231.13 431.288C1257.24 431.288 1280.02 438.456 1299.48 452.792C1318.94 466.616 1332.5 486.584 1340.18 512.696C1351.45 487.096 1366.81 467.128 1386.26 452.792C1405.72 438.456 1428.25 431.288 1453.85 431.288ZM1978.03 443.576V803H1925.81V743.096C1913.52 766.136 1897.14 784.056 1876.66 796.856C1856.69 809.144 1833.39 815.288 1806.77 815.288C1781.68 815.288 1758.38 810.168 1736.88 799.928C1715.89 789.688 1698.99 774.584 1686.19 754.616C1673.9 734.648 1667.76 711.096 1667.76 683.96V443.576H1719.98V660.92C1719.98 732.088 1751.73 767.672 1815.22 767.672C1852.08 767.672 1879.73 754.616 1898.16 728.504C1916.59 702.392 1925.81 667.32 1925.81 623.288V443.576H1978.03ZM2201.6 815.288C2166.79 815.288 2136.07 807.864 2109.44 793.016C2083.33 778.168 2063.36 757.176 2049.54 730.04L2096.39 707C2115.33 747.448 2152.45 767.672 2207.75 767.672C2234.37 767.672 2256.39 762.808 2273.8 753.08C2291.2 743.352 2299.91 728.248 2299.91 707.768C2299.91 686.776 2292.74 671.16 2278.4 660.92C2264.58 650.68 2240 644.024 2204.68 640.952C2155.52 636.856 2120.2 625.848 2098.69 607.928C2077.7 590.008 2067.2 566.2 2067.2 536.504C2067.2 503.224 2079.24 477.368 2103.3 458.936C2127.36 440.504 2160.39 431.288 2202.37 431.288C2273.54 431.288 2321.92 459.448 2347.52 515.768L2300.68 538.808C2291.97 518.328 2279.17 503.224 2262.28 493.496C2245.89 483.768 2224.64 478.904 2198.53 478.904C2171.91 478.904 2151.43 483.768 2137.09 493.496C2123.27 503.224 2116.36 517.048 2116.36 534.968C2116.36 551.864 2123.78 565.688 2138.63 576.44C2153.99 586.68 2180.1 593.336 2216.96 596.408C2262.53 600.504 2296.32 611.768 2318.34 630.2C2340.87 648.12 2352.13 671.928 2352.13 701.624C2352.13 725.688 2345.22 746.424 2331.4 763.832C2317.57 780.728 2299.14 793.528 2276.1 802.232C2253.06 810.936 2228.23 815.288 2201.6 815.288ZM2586.27 431.288C2618.53 431.288 2647.71 439.224 2673.82 455.096C2699.93 470.968 2720.41 492.728 2735.26 520.376C2750.11 547.512 2757.53 577.976 2757.53 611.768C2757.53 621.496 2757.28 628.92 2756.77 634.04H2461.09C2463.13 670.904 2475.17 702.392 2497.18 728.504C2519.2 754.616 2549.15 767.672 2587.04 767.672C2617.76 767.672 2643.1 762.04 2663.07 750.776C2683.55 739 2699.93 722.872 2712.22 702.392L2753.69 730.04C2736.8 756.664 2714.53 777.656 2686.88 793.016C2659.23 807.864 2626.46 815.288 2588.57 815.288C2553.76 815.288 2522.78 807.096 2495.65 790.712C2468.51 774.328 2447.26 751.544 2431.9 722.36C2416.54 693.176 2408.86 660.152 2408.86 623.288C2408.86 586.424 2416.29 553.4 2431.13 524.216C2446.49 495.032 2467.49 472.248 2494.11 455.864C2521.25 439.48 2551.97 431.288 2586.27 431.288ZM2705.31 591.032C2700.19 553.656 2687.65 525.752 2667.68 507.32C2647.71 488.376 2620.57 478.904 2586.27 478.904C2552.99 478.904 2525.6 489.656 2504.09 511.16C2483.1 532.152 2469.79 558.776 2464.16 591.032H2705.31Z" fill="#930ED2" fill-opacity="0.96"/>
<defs>
<linearGradient id="paint0_linear_120_14" x1="633.273" y1="709.435" x2="508.108" y2="341.662" gradientUnits="userSpaceOnUse">
<stop stop-color="#0E22D2" stop-opacity="0.96"/>
<stop offset="0.703125" stop-color="#930ED2" stop-opacity="0.96"/>
</linearGradient>
<linearGradient id="paint1_linear_120_14" x1="495.821" y1="975.971" x2="409.614" y2="722.668" gradientUnits="userSpaceOnUse">
<stop stop-color="#0E22D2" stop-opacity="0.96"/>
<stop offset="0.703125" stop-color="#930ED2" stop-opacity="0.96"/>
</linearGradient>
<clipPath id="clip0_120_14">
<rect width="600" height="600" fill="white" transform="translate(161 459.311) rotate(-18.7951)"/>
</clipPath>
</defs>
</svg>
